<svg xmlns="http://www.w3.org/2000/svg"
 width="18" height="19" 
 viewBox="0 0 18 19">
 <path fill="#FFF"
  fill-rule="evenodd"
   d="M2.54 3.328C4.257 1.61 6.327.75 8.75.75s4.486.853 6.191 2.559C16.647 5.014 17.5 7.079 17.5 9.5c0 2.422-.853 4.486-2.559 6.191-1.705 1.706-3.77 2.559-6.191 2.559-2.422 0-4.486-.853-6.191-2.559C.853 13.986 0 11.921 0 9.5c0-2.422.846-4.48 2.54-6.172zm6.522 6.719c.365-.182.443-.469.235-.86a.612.612 0 0 0-.547-.312l-1.484-2.5c-.079-.156-.222-.182-.43-.078-.156.078-.182.221-.078.43l1.445 2.46a.549.549 0 0 0 0 .626.64.64 0 0 1 .078.097.64.64 0 0 0 .078.098c.026.026.052.039.079.039v4.765c0 .209.104.313.312.313.208 0 .313-.104.313-.313v-4.765z">
   </path>
   </svg>
