<svg xmlns="http://www.w3.org/2000/svg" width="26" height="25" viewBox="0 0 26 25">
    <g fill="none" fill-rule="evenodd">
        <path fill="#111" d="M-89-1590h1440v7571H-89z"/>
        <path fill="#7AC70C" d="M14.859 12.114c.412 0 .731.319.731.733a.73.73 0 0 1-.731.73h-1.463v1.444a.72.72 0 0 1-.732.732.731.731 0 0 1-.732-.732v-1.444h-1.444a.73.73 0 0 1-.731-.73c0-.414.319-.733.731-.733h1.444v-1.463c0-.394.338-.731.732-.731.413 0 .732.337.732.731v1.463h1.463zm-2.195 8.028c-3.92 0-7.109-3.189-7.109-7.128a.544.544 0 0 1 1.088 0 6.028 6.028 0 0 0 6.021 6.021 6.028 6.028 0 0 0 6.021-6.02c0-3.32-2.701-6.02-6.021-6.02-.75 0-1.482.186-2.195.47l.282.748c.112.281-.15.581-.45.506L8.05 8.175a.394.394 0 0 1-.225-.6l1.369-1.876c.188-.244.581-.187.675.094l.244.638c.807-.32 1.67-.525 2.551-.525 3.92 0 7.128 3.19 7.128 7.108 0 3.94-3.208 7.128-7.128 7.128zM5.949.874h14.126a5 5 0 0 1 5 5V20a5 5 0 0 1-5 5H5.95a5 5 0 0 1-5-5V5.874a5 5 0 0 1 5-5z"/>
    </g>
</svg>
